<svg version="1" xmlns="http://www.w3.org/2000/svg" width="682.667" height="682.667" viewBox="0 0 512.000000 512.000000"><path d="M251 35.9c-2.2.8-74.4 31.9-82.5 35.6-1.6.8-29.8 12.9-62.5 27-51.7 22.2-59.9 26.1-62.7 29.2-1.8 2-3.5 5-3.9 6.8-.5 2.8 19.5 219.6 21.2 229.5 1.2 7.1 1.4 7.3 41.8 35.4 3.9 2.8 36.4 25.5 72.1 50.6 35.8 25.1 67.4 47.3 70.4 49.3 4.5 3.2 6.1 3.7 10.8 3.7 3 0 6.3-.5 7.4-1.1 1.1-.6 15.8-10.7 32.5-22.5 16.8-11.8 30.9-21.4 31.4-21.4s1-.4 1.2-.8c.2-.5 26.7-19.4 59-42.1 32.2-22.6 59.8-42.5 61.1-44.1 1.4-1.6 2.8-4.6 3.1-6.7 1.8-11.8 21.7-227.1 21.2-229.8-.4-1.8-2.1-4.8-3.9-6.8-2.8-3.2-15.3-8.8-105.2-47.7-58.9-25.4-103.7-44.3-106-44.5-2.2-.2-5.1 0-6.5.4zM197.8 66c-1.8 2.8.5 4.6 13.2 10.5 5.8 2.6 15 6.9 20.5 9.5 17.7 8.3 23.7 11 24.6 11 1 0 44.2-19.9 50-23 2-1.1 4.3-2 5.1-2 .8 0 2.1-1.1 2.8-2.5 1.1-2 1.1-2.7-.1-4.1-1.2-1.5-1-1.5 2.4-.1 2 .9 4.5 2.1 5.4 2.6 1.5.9 1.5 1 .2 1.1-1.4 0-22.4 9.5-46.4 20.9-14.8 7.1-15.7 9.2-5.8 13.8 9 4.1 21.8 10.1 32.8 15.3 5.5 2.6 13.2 6.2 17.1 7.9l7.2 3.3 18.8-9.5c39.6-20 41-20.9 38.7-24.6-1-1.7-.5-1.6 4.8.8 5.7 2.5 5.8 2.6 3.2 3.4-1.6.4-14.9 6.9-29.8 14.5-28.2 14.3-30 15.7-25.8 19.4 1 .8 10.4 5.5 20.8 10.3 10.5 4.9 24.5 11.4 31.3 14.7 6.7 3.2 13.1 5.8 14.3 5.8 1.1 0 6.9-2.7 12.8-6s11.3-6 11.9-6c.6 0 1.2-.4 1.4-.8.2-.5 5.9-3.9 12.8-7.7 18.7-10.2 21.3-12.6 17.8-16.4-.8-.9-.1-.7 1.9.3 4.1 2.1 6.3 6.3 6.1 11.8-.1 3.6-.2 3.8-.5 1.1-.3-2.1-1.1-3.4-2.4-3.8-2-.7-6 .2-6.9 1.5-.3.4-4.5 2.8-9.5 5.4-4.9 2.6-9.7 5.4-10.6 6.2-.8.8-2.2 1.4-2.9 1.4-.7 0-2.1.6-2.9 1.4-1.4 1.2-10.7 6.3-21.3 11.8-2 1.1-4.1 2.5-4.7 3.2-.5.6-2.2 18.2-3.6 39-3.2 45.4-3.4 44.4 8.9 36.6 3.5-2.2 6.8-4 7.5-4 .6 0 1.1-.3 1.1-.8 0-.4 2.1-1.9 4.7-3.2 2.6-1.4 5.4-3.1 6.2-3.8.8-.8 2.4-1.8 3.5-2.3 1.2-.5 3.5-1.8 5.1-2.9 1.7-1.1 4.1-2.5 5.5-3.2 1.4-.7 2.7-1.5 3-1.8.3-.3 3.1-2.2 6.3-4.3 4.6-3 5.7-4.2 5.7-6.4 0-1.4.3-2.4.6-2.1.3.4.2 4.8-.2 10-.5 5.1-1 8.2-1.2 6.8-.2-1.4-.9-2.8-1.6-3.2-2.7-1.8-3.1-1.7-30.6 15.2-.8.5-7 4.2-13.7 8.2-6.6 4-12.6 8.2-13.2 9.3-1.6 2.8-6.1 69.6-4.8 71.2 1.6 2.1 4.5 1.5 10-2.2 2.8-1.9 5.7-3.5 6.4-3.5.7 0 1.3-.4 1.3-.8 0-.5 1.2-1.5 2.8-2.3 1.5-.8 2.9-1.7 3.2-2 1.2-1.3 9.9-6.9 10.8-6.9.6 0 1.2-.4 1.4-.9.3-.9 17.4-12.1 18.4-12.1.4 0 1.3-.8 2-1.8 1.2-1.5 1.3-1.2 1.4 2.5 0 4.2-1.3 6.3-2.6 4.2-.9-1.6-6-.3-8.6 2.1-1.2 1.1-2.7 2-3.4 2-.7 0-1.4.4-1.6.8-.4 1.1-9.4 7.2-10.6 7.2-.6 0-1.2.4-1.4.8-.3.9-10.6 8-14.9 10.3-4.8 2.6-14.4 9.4-15.4 10.9-1.1 1.7-5.7 63.6-4.8 66.3.4 1.4 1.2 1.8 3.4 1.5 3.4-.5 3.4-.5-4.1 4.7-3 2.2-4.8 3-3.9 2 2.3-2.7 6.7-65.8 4.9-68.1-1.4-1.6-5.6-1.9-6.5-.4-.6 1-15.2 11-16 11-.3 0-1.3.7-2.2 1.6-1 .9-9 6.2-17.8 11.9s-16.8 11.1-17.7 12.1c-1.4 1.3-1.8 3.5-1.8 9.3 0 4.2-.5 18.8-1 32.5-1.1 26.7-.9 28.2 3.7 27.3 1.3-.2 2.3-.3 2.3-.1 0 .3-12 8.8-14 9.9-.8.4-.3-.4 1.1-1.8 2.6-2.5 2.7-2.8 3.4-20.9.4-10.1.7-25 .8-33.2.2-13.1 0-15-1.5-16-1.9-1.1-7.3 1.1-11.2 4.6-1.1 1-2.5 1.8-3.2 1.8-.7 0-1.4.4-1.6.8-.3.9-9.3 7.2-10.3 7.2-.3 0-1.1.5-1.8 1.1-1.6 1.4-14.8 9.9-15.3 9.9-.3 0-1.4.8-2.5 1.8-1 1.1-3.2 2.5-4.7 3.3-1.4.8-3.4 1.9-4.2 2.6-.8.7-3.4 2.6-5.7 4.3l-4.3 3v33.8c0 34.4.2 36.2 3.8 36.2.7 0 3-1.2 5-2.8 2-1.5 3.2-2.1 2.8-1.4-1.7 2.8-10 7.2-13.6 7.2-3.3 0-13-4.9-13-6.5 0-.4 1.3.3 2.9 1.4 1.6 1.2 3.5 2.1 4.3 2.1 3.6 0 3.8-1.7 3.8-36 0-33.6 0-33.7-2.2-35.7-2.5-2.2-11.6-8.3-12.4-8.3-.6 0-9.6-6-10.4-6.9-.3-.3-1.7-1.2-3.2-2-1.6-.8-2.8-1.8-2.8-2.3 0-.4-.5-.8-1-.8-1.2 0-18.3-11.2-18.8-12.3-.2-.4-.8-.7-1.2-.7-.5 0-2.9-1.4-5.3-3-5.1-3.4-6.9-3.7-8.8-1.4-1 1.3-1.1 7.5-.1 34.2l1.2 32.7 3.2 2.8c1.8 1.6-.2.5-4.6-2.5-5.9-4-7.3-5.4-5.8-5.6 1.1-.2 2.5-.9 3-1.5.7-.8.6-12.7-.3-34.2-.7-18.2-1.3-33.1-1.4-33.2-.1-.1-2.2-1.7-4.8-3.4-2.7-1.8-4.9-3.6-5.1-4.1-.2-.4-.8-.8-1.3-.8-.9 0-21.8-13.6-22.9-14.9-.3-.3-2.2-1.4-4.2-2.5-2-1-4.5-2.6-5.5-3.5-1-.9-3-2.2-4.5-3-1.6-.8-2.8-1.8-2.8-2.3 0-.4-.7-.8-1.5-.8s-1.5-.4-1.5-.9c0-1.7-5.2-2.3-6.8-.7-2.2 2.2 2 65.1 4.6 68 .9 1.1-.8.3-3.8-1.9-7.4-5.2-7.5-5.3-4.8-4.8 1.3.3 2.9-.1 3.5-.9 1.1-1.4-2.7-63.7-4.2-67.1-.4-.9-1.3-1.7-1.9-1.7-.7 0-2.2-.9-3.4-2-1.2-1.1-2.6-2-3.2-2-.5 0-1-.5-1-1 0-.6-.7-1-1.5-1s-1.5-.5-1.5-1c0-.6-.6-1-1.3-1-.7 0-2.3-.9-3.5-2-1.2-1.1-2.4-2-2.7-2-.3 0-7.7-4.7-16.5-10.5-15.6-10.3-18.2-11.6-19.5-9.5-1.2 2-2.5-.1-2.5-4.1v-4l5.2 3.9c2.9 2.1 7.4 5.1 10 6.7 2.7 1.7 4.8 3.3 4.8 3.7 0 .5.6.8 1.3.8.7 0 2.2.8 3.3 1.7 2.7 2.4 5.5 4.2 7.7 4.9.9.4 1.7 1 1.7 1.5s.7.9 1.5.9 1.5.4 1.5 1c0 .5.5 1 1 1 .6 0 4.5 2.3 8.7 5.1 8.5 5.8 10.5 5.7 11.1-.2.2-1.9-.6-17.8-1.8-35.4l-2.1-32-2.7-2.5c-1.5-1.4-4.9-3.6-7.5-5-2.6-1.3-4.7-2.8-4.7-3.2 0-.5-.4-.8-1-.8-.9 0-11-5.8-12-6.9-.3-.4-2.6-1.7-5.2-3.1-2.7-1.3-4.8-2.8-4.8-3.2 0-.5-.4-.8-1-.8-1.1 0-11.2-6-12-7.1-.3-.4-1.8-1.1-3.3-1.4-3.2-.8-5.7.8-5.7 3.8 0 5-.8.5-1.3-7.3-.3-4.7-.3-7.6-.1-6.5.3 1.3 3.4 3.9 7.7 6.5 4 2.4 7.4 4.7 7.7 5 .3.4 2.6 1.7 5.3 3 2.6 1.3 5.6 3.2 6.7 4.2 1 1 2.2 1.8 2.6 1.8.8 0 12.7 7.1 13.4 8.1.3.3 1.4.9 2.6 1.3 1.1.3 3 1.5 4.3 2.7 2.9 2.8 8.6 3.7 9.4 1.5.4-.9-.5-18.4-1.9-38.8-2-29-2.9-37.7-4.1-39-.8-.9-11.4-7.2-23.6-13.9-12.2-6.8-22.4-12.6-22.7-12.9-1.1-1.1-9.8-5-11.3-5-1 0-1.9 1.1-2.3 2.7-1 4.8-1.2 4.9-1.3.5-.1-4.9 2-9.6 4.9-11.2 1.7-.9 2-.8 2 1.2.1 2.9 1.6 4.8 5.5 6.9 13.5 7.3 26.1 14.3 26.5 14.8.3.3 2.5 1.7 5 2.9 2.5 1.3 7.8 4.1 11.8 6.3 3.9 2.1 8.1 3.9 9.3 3.9 1.9 0 11.4-4.1 21.9-9.5 2.5-1.2 13.1-6.2 23.5-11 10.5-4.8 19.8-9.5 20.9-10.5 4.3-4.1 2.3-5.6-26.9-20-15.1-7.4-28.4-13.7-29.7-14-1.9-.5-1.4-.9 2.7-2.5 2.8-1.1 5.2-2.1 5.5-2.3.3-.1.6 1 .5 2.5 0 2.4.8 3.2 5 5.3 2.8 1.4 5.2 2.8 5.5 3.1.3.3 11 5.9 23.9 12.3l23.3 11.8 6.2-2.8c3.3-1.4 10.8-4.9 16.6-7.6 5.8-2.8 16.8-7.9 24.5-11.5 16.1-7.5 16.5-7.8 16.5-10.7 0-1.7-1.5-2.9-7.7-5.6-7.4-3.3-16.4-7.5-29.8-13.9-13.7-6.6-19.6-9.1-21.3-9.2-1.2 0 6.2-4.3 8.6-4.8.1-.1-.3.8-1 1.9zm268.9 86.7c-.2 1.6-.4.5-.4-2.2 0-2.8.2-4 .4-2.8.2 1.3.2 3.5 0 5zm-421 .5c-.2 1.3-.4.5-.4-1.7-.1-2.2.1-3.2.4-2.3.2 1 .2 2.8 0 4zm420 10c-.2 1.3-.4.3-.4-2.2s.2-3.5.4-2.3c.2 1.3.2 3.3 0 4.5zm-419 .5c-.3 1-.5.2-.5-1.7s.2-2.7.5-1.8c.2 1 .2 2.6 0 3.5zm418 9.5c-.2 1.3-.4.3-.4-2.2s.2-3.5.4-2.3c.2 1.3.2 3.3 0 4.5zm-417 .5c-.3 1-.5.2-.5-1.7s.2-2.7.5-1.8c.2 1 .2 2.6 0 3.5zm416 10.5c-.2 1.3-.4.3-.4-2.2s.2-3.5.4-2.3c.2 1.3.2 3.3 0 4.5zm-415 .5c-.3 1-.5.2-.5-1.7s.2-2.7.5-1.8c.2 1 .2 2.6 0 3.5zm414 9.5c-.2 1.3-.4.3-.4-2.2s.2-3.5.4-2.3c.2 1.3.2 3.3 0 4.5zm-413 .5c-.3 1-.5.2-.5-1.7s.2-2.7.5-1.8c.2 1 .2 2.6 0 3.5zm412 10.5c-.2 1.3-.4.3-.4-2.2s.2-3.5.4-2.3c.2 1.3.2 3.3 0 4.5zm-411 .5c-.3 1-.5.2-.5-1.7s.2-2.7.5-1.8c.2 1 .2 2.6 0 3.5zm408 31c-.3 1-.5.2-.5-1.7s.2-2.7.5-1.8c.2 1 .2 2.6 0 3.5zm-405 .5c-.3.7-.5.2-.5-1.2s.2-1.9.5-1.3c.2.7.2 1.9 0 2.5zm404 10.5c-.3 1-.5.2-.5-1.7s.2-2.7.5-1.8c.2 1 .2 2.6 0 3.5zm-403 0c-.3 1-.5.4-.5-1.2 0-1.7.2-2.4.5-1.8.2.7.2 2.1 0 3zm402 10c-.3 1-.5.2-.5-1.7s.2-2.7.5-1.8c.2 1 .2 2.6 0 3.5zm-401 .5c-.3.7-.5.2-.5-1.2s.2-1.9.5-1.3c.2.7.2 1.9 0 2.5zm1 10.5c-.3 1-.5.4-.5-1.2 0-1.7.2-2.4.5-1.8.2.7.2 2.1 0 3zm399 0c-.3 1-.5.4-.5-1.2 0-1.7.2-2.4.5-1.8.2.7.2 2.1 0 3zm-1 10.5c-.2 1.3-.4.5-.4-1.7-.1-2.2.1-3.2.4-2.3.2 1 .2 2.8 0 4zm-397 .5c-.3 1-.5.4-.5-1.2 0-1.7.2-2.4.5-1.8.2.7.2 2.1 0 3zm396 9.5c-.2 1.3-.4.5-.4-1.7-.1-2.2.1-3.2.4-2.3.2 1 .2 2.8 0 4zm-395 .5c-.3 1-.5.4-.5-1.2 0-1.7.2-2.4.5-1.8.2.7.2 2.1 0 3zm393 21c-.3 1-.5.4-.5-1.2 0-1.7.2-2.4.5-1.8.2.7.2 2.1 0 3zm-391 .5c-.3.8-.6.5-.6-.6-.1-1.1.2-1.7.5-1.3.3.3.4 1.2.1 1.9zm390 10c-.3.7-.5.2-.5-1.2s.2-1.9.5-1.3c.2.7.2 1.9 0 2.5zm-389 0c-.3.8-.6.5-.6-.6-.1-1.1.2-1.7.5-1.3.3.3.4 1.2.1 1.9zm388 10.5c-.3 1-.5.4-.5-1.2 0-1.7.2-2.4.5-1.8.2.7.2 2.1 0 3zm-387 .5c-.3.8-.6.5-.6-.6-.1-1.1.2-1.7.5-1.3.3.3.4 1.2.1 1.9zm386 10c-.3.7-.5.2-.5-1.2s.2-1.9.5-1.3c.2.7.2 1.9 0 2.5zm-385 0c-.3.8-.6.5-.6-.6-.1-1.1.2-1.7.5-1.3.3.3.4 1.2.1 1.9zm384 10.5c-.3 1-.5.4-.5-1.2 0-1.7.2-2.4.5-1.8.2.7.2 2.1 0 3zm-383 .5c-.3.8-.6.5-.6-.6-.1-1.1.2-1.7.5-1.3.3.3.4 1.2.1 1.9zm382 9c-.3.8-.6.5-.6-.6-.1-1.1.2-1.7.5-1.3.3.3.4 1.2.1 1.9zm-9.7 11.2c0 .2-.8 1-1.7 1.7-1.6 1.3-1.7 1.2-.4-.4 1.3-1.6 2.1-2.1 2.1-1.3zm-57 40c0 .3-1.5 1.4-3.2 2.6l-3.3 2.2 3-2.6c3.1-2.7 3.5-2.9 3.5-2.2zm-10 7c0 .3-1.5 1.4-3.2 2.6l-3.3 2.2 3-2.6c3.1-2.7 3.5-2.9 3.5-2.2zm-218.9 6.3c1.3 1.6 1.2 1.7-.3.4-1.7-1.3-2.2-2.1-1.4-2.1.2 0 1 .8 1.7 1.7zm211.9-1.2c0 .2-2 1.8-4.5 3.5s-4.5 2.9-4.5 2.6c0-.4 8-6.4 8.8-6.6.1 0 .2.2.2.5zm-201.9 8.2c1.3 1.6 1.2 1.7-.3.4-1.7-1.3-2.2-2.1-1.4-2.1.2 0 1 .8 1.7 1.7zm191.9-1.3c0 .3-1.5 1.4-3.2 2.6l-3.3 2.2 3-2.6c3.1-2.7 3.5-2.9 3.5-2.2zm-10 7c0 .3-1.5 1.4-3.2 2.6l-3.3 2.2 3-2.6c3.1-2.7 3.5-2.9 3.5-2.2zm-26.5 18.5c-.8 1.4-13.5 10.2-13.5 9.3.1-.6 12.8-9.9 13.8-10.1.2-.1.1.3-.3.8zM205 464.6c0 .3-2-.9-4.5-2.6-2.5-1.7-4.5-3.3-4.5-3.6 0-.3 2 .9 4.5 2.6 2.5 1.7 4.5 3.3 4.5 3.6zm7 5c0 .3-1.3-.4-3-1.6-1.6-1.2-3-2.4-3-2.6 0-.3 1.4.4 3 1.6 1.7 1.2 3 2.4 3 2.6zm89.5-.8c-3.4 2.9-8.5 6.2-8.5 5.5 0-.4 1.9-2 4.3-3.5 4.1-2.7 6.1-3.6 4.2-2zm-83.4 4.9c1.3 1.6 1.2 1.7-.3.4-1-.7-1.8-1.5-1.8-1.7 0-.8.8-.3 2.1 1.3zm73.4 2.2c-2.1 1.8-17.5 12.2-17.5 11.8 0-.6 17.1-12.7 17.9-12.7.3 0 .1.4-.4.9zm-59.5 7.7c0 .3-1.3-.4-3-1.6-1.6-1.2-3-2.4-3-2.6 0-.3 1.4.4 3 1.6 1.7 1.2 3 2.4 3 2.6zm10 7c0 .3-1.3-.4-3-1.6-1.6-1.2-3-2.4-3-2.6 0-.3 1.4.4 3 1.6 1.7 1.2 3 2.4 3 2.6z"/><path d="M248.6 102.6c-2.6 1.4-6.6 3.2-8.8 4-2.2.7-5.4 2.4-7.1 3.6-1.8 1.3-3.4 2.2-3.7 2.2-.8-.2-3.6 1-19 8.3-17.7 8.4-17 7.9-17 10.7 0 2.1 3.7 4.3 30.5 18C240.2 158 255 165 256.2 165c1.3 0 10.4-4.3 20.3-9.5s19.1-10 20.5-10.5c5.3-2.2 18.6-9.3 20.3-10.8 1-.9 1.7-2.5 1.5-3.5-.3-2-.6-2.3-6.8-5.3-1.9-.9-5.1-2.4-7-3.4-1.9-1-5.1-2.4-7-3.3-1.9-.9-11.8-5.4-21.9-10.1-10.1-4.8-19.4-8.6-20.5-8.6-1.2 0-4.3 1.2-7 2.6zM318 137.4c-4.7 2.4-9.8 5-11.5 5.9-1.6.9-3.5 1.7-4.2 1.7-.6 0-1.3.4-1.5.8-.1.5-7.7 4.6-16.8 9.1-18.2 9.1-21.1 11.1-19.4 13.9 1 1.7 65.7 35.1 68.3 35.2.7 0 8.2-3.7 16.5-8.3 8.3-4.5 16.5-8.9 18.1-9.7 1.7-.8 3.2-1.7 3.5-2.1.3-.3 3.7-2.2 7.5-4.3 18.1-9.8 19.7-11.3 15.8-14.9-1-.8-9.7-5.2-19.3-9.7-9.6-4.5-20-9.4-23-10.8-3-1.5-5.7-2.7-6-2.8-.3 0-4.5-1.9-9.3-4.2-4.9-2.3-9.2-4.2-9.5-4.1-.4 0-4.5 1.9-9.2 4.3zM174 138.1c-4.7 2.2-10.5 5-13 6.1-27.8 12.7-43.8 20.7-44.4 22.4-.4 1-.1 2.3.6 3 1.4 1.2 52.6 29.9 58.9 32.9l3.5 1.7 17.6-9.1c26.6-13.6 36.2-18.5 36.8-18.6.3-.1 3.3-1.5 6.6-3.2 6.6-3.4 8-5.2 6.1-7.7-1.6-2-59.9-31.6-62.3-31.6-1.1 0-5.7 1.9-10.4 4.1zM251.4 172c-1.7 1-16.2 8.4-32.2 16.4-16.1 8.1-29.8 15.4-30.7 16.2-1.1 1.1-1.2 2-.5 3.3.7 1.5 11.3 7.7 31.5 18.6 1.1.6 4.2 2.4 7 4.1 5.5 3.2 13.8 7.7 23.3 12.6l6.3 3.3 5.7-3c3.1-1.6 12.2-6.6 20.2-11.1 8-4.4 16.8-9.3 19.5-10.9 2.8-1.5 8.7-4.8 13.3-7.2 9-4.9 11.1-7.2 8.7-9.7-.9-.8-13.1-7.3-27.3-14.5-14.1-7.1-28.8-14.5-32.7-16.5-3.8-2-7.4-3.6-8-3.5-.5 0-2.4.9-4.1 1.9zM111 175.5c-.9 1.1-.6 9.4 1.4 38.4 2.4 35.2 3.3 41.1 5.9 41.1.5 0 3.2 1.5 6 3.4 2.9 1.8 10.4 6.4 16.7 10.2 6.3 3.7 11.7 7.1 11.8 7.6.2.4.8.8 1.3.8.8 0 10.9 5.9 11.9 6.9 1.1 1.2 9 5.1 10.3 5.1.8 0 1.9-.6 2.5-1.3 1.3-1.6-1.4-76.3-2.9-79.3-.6-1.1-3-2.9-5.5-4-2.4-1-4.4-2.2-4.4-2.7 0-.4-.6-.7-1.4-.7-.8 0-1.6-.3-1.8-.8-.1-.4-4.1-2.7-8.8-5.1-4.7-2.5-8.7-4.7-9-5-.3-.3-2.5-1.6-5-2.8-4.9-2.4-12.2-6.5-13-7.3-1.2-1.2-11.7-6-13.1-6-.9 0-2.2.7-2.9 1.5zM393 175.3c-1.4.6-2.9 1.7-3.3 2.4-.4.7-1.4 1.3-2.1 1.3-.8 0-3.8 1.5-6.9 3.3-3 1.9-8.1 4.7-11.4 6.3-3.2 1.6-6 3.2-6.3 3.5-.3.3-4.3 2.6-9 5s-8.7 4.7-9 5c-.3.4-2.4 1.6-4.7 2.8-2.3 1.1-4.4 2.5-4.7 3-.4.5-1.3 18.4-2.1 39.7-1.1 28.6-1.2 39-.4 40 1.2 1.5 5.5 1.9 6.1.6.2-.4 1.9-1.7 3.8-2.8 1.9-1.2 7.6-4.7 12.7-7.8 5-3.1 9.6-5.6 10.2-5.6.6 0 1.1-.3 1.1-.8 0-.4.9-1.2 2-1.7 1.1-.6 6.5-3.8 12-7.3 5.5-3.4 10.4-6.2 10.8-6.2.4-.1 1.7-.9 2.8-1.9 2.1-1.6 2.3-3.8 4.7-39.6 1.9-27.4 2.3-38.3 1.5-39.2-1.3-1.6-4.4-1.6-7.8 0zM182 214.5c-.9 1.1-.9 8.6-.1 33.7.6 17.8 1.4 35.5 1.7 39.4.5 6.9.7 7.2 4 9 1.9 1 3.4 2.2 3.4 2.6 0 .5.5.8 1.1.8 1.1 0 15.9 8.7 16.9 9.9.3.3 2.5 1.7 5 3 2.5 1.4 4.7 2.7 5 3 .3.4 1.6 1.2 3 1.9s3.7 2 5.2 3c8.3 5.2 22.2 13.2 23.2 13.2 3.4 0 3.6-2 3.6-42.1v-39.8l-3.2-2.4c-1.8-1.3-11.4-6.8-21.3-12.2-9.9-5.4-18.1-10.2-18.3-10.7-.2-.4-.8-.8-1.4-.8-.6 0-6.3-2.9-12.7-6.5-6.4-3.6-12.2-6.5-12.8-6.5-.6 0-1.6.7-2.3 1.5zM321.8 215.4c-5.8 3.3-12.8 7.2-18.8 10.3-3 1.5-5.7 3.1-6 3.4-.3.3-4.3 2.6-9 5s-8.7 4.7-9 5c-.3.4-4.1 2.5-8.5 4.8s-9 5.1-10.2 6.2L258 252v39.3c0 29.2.3 39.6 1.2 40.5 1.6 1.6 4.8 1.4 8-.6 1.4-.9 5.7-3.6 9.5-5.8 3.7-2.3 13.1-8 20.8-12.7 24.6-15 27.4-16.7 28.4-16.7.5 0 1.2-.8 1.5-1.8.3-.9 1.2-19 2-40.1 1.1-27.7 1.2-38.9.4-39.8-1.4-1.8-3.6-1.5-8 1.1zM117 261.5c-1.2 1.4-1.1 6.9.9 36.3 1.2 19.1 2.7 35.3 3.3 35.9 1.2 1.5 14.2 10.2 18.1 12.2 1.5.7 2.7 1.7 2.7 2.2 0 .5.7.9 1.5.9s1.5.3 1.5.8c0 .4 1.3 1.3 2.8 2 1.6.6 3.7 2 4.8 3 1 .9 3.1 2.3 4.6 3.1 1.5.8 3.7 2.2 4.7 3.3 1.1 1 2.5 1.8 3.1 1.8.5 0 1 .4 1 1 0 .5.4 1 1 1 .5 0 3.2 1.3 5.8 3 5.4 3.3 7.4 3.7 9 1.7 1.2-1.4-.9-69.6-2.2-72.7-.6-1.4-3-3.1-9.2-6.6-4.3-2.4-22.9-13.8-23.4-14.4-.3-.3-1.6-1.1-3-1.8-3.5-1.7-9.4-5.3-10-6.1-.3-.3-2.5-1.7-5-3-2.5-1.4-4.7-2.8-5-3.2-1.2-1.8-5.7-2-7-.4zM389 261.3c-1.4.7-6.8 4-12 7.3s-10.2 6.4-11 6.8c-.8.3-4.6 2.6-8.5 5.1-3.8 2.4-10.6 6.5-15 9.2-4.4 2.6-8.7 5.6-9.6 6.7-1.3 1.6-1.7 5.9-2.3 24-.3 12.2-.9 28.3-1.3 35.8l-.6 13.7 2.5.6c2.8.7 9.2-2.3 13.6-6.3.7-.6 1.7-1.2 2.2-1.2.5 0 1.5-.6 2.2-1.3.7-.7 4.2-3.2 7.8-5.5 3.6-2.3 7-4.5 7.5-4.9.6-.5 6.5-4.4 13.2-8.8 6.7-4.4 12.6-8.9 13.2-10 .5-1.1 2-17.2 3.2-35.7 1.7-27.2 1.9-34.1.9-35.3-1.5-1.8-2.8-1.9-6-.2zM185.1 303.4c-1 1.1-1 9.6 0 37.4l1.3 35.9 6.8 4.4c3.7 2.4 6.8 4.7 6.8 5.1 0 .5.5.8 1.1.8.6 0 3.6 1.8 6.7 3.9 3.2 2.1 10.4 6.9 16.2 10.6 5.8 3.7 10.7 7.1 10.8 7.6.2.5.8.9 1.3.9.6 0 3.7 1.8 6.9 4 11.3 7.7 11 8.7 11-34.6 0-19.9-.3-36.9-.6-37.8-.3-.9-1.1-1.6-1.6-1.6s-2.4-1-4.1-2.3c-1.8-1.2-4.1-2.7-5.2-3.3-6.9-3.7-20.1-11.9-20.3-12.6-.2-.4-.8-.8-1.2-.8-1.3 0-19.4-11.1-19.8-12.1-.2-.5-.8-.9-1.4-.9-.6 0-3.3-1.4-6-3-5.4-3.4-7-3.6-8.7-1.6zM318.6 304.3c-2.2 1.2-4.4 2.5-5 3-2.8 2-9.4 6.1-24.6 15.2-9.1 5.5-16.6 10.3-16.8 10.7-.2.5-1.2.8-2.3.8-1 0-1.9.3-1.9.8 0 .4-1.7 1.6-3.7 2.7-6.7 3.6-6.3 1.1-6.3 42 0 36.4.1 37.4 2 38 2 .6 6.8-1.5 10.4-4.8 1.1-.9 2.6-1.7 3.3-1.7.7 0 1.3-.4 1.3-.8s1.4-1.7 3.2-2.7c1.7-1.1 4.8-3 6.7-4.2 2-1.3 4.3-2.6 5.1-3 .8-.4 2.4-1.5 3.4-2.5 1.1-1 2.6-1.8 3.3-1.8.7 0 1.3-.4 1.3-.8 0-.5 1.2-1.5 2.8-2.3 1.5-.8 2.9-1.7 3.2-2 .3-.4 5.1-3.6 10.7-7.3l10.2-6.7.5-5.2c.3-2.9 1-19.1 1.6-36.1 1-32 .9-33.7-2.9-33.6-.9.1-3.4 1.1-5.5 2.3z"/></svg>